<svg xmlns="http://www.w3.org/2000/svg" xmlns:xlink="http://www.w3.org/1999/xlink" width="1080" zoomAndPan="magnify" viewBox="0 0 810 809.999993" height="1080" preserveAspectRatio="xMidYMid meet" version="1.0"><defs><clipPath id="488bf3ae4b"><path d="M 29.070312 29.070312 L 780.570312 29.070312 L 780.570312 780.570312 L 29.070312 780.570312 Z M 29.070312 29.070312 " clip-rule="nonzero"/></clipPath></defs><g clip-path="url(#488bf3ae4b)"><path fill="#f7ca4b" d="M 780.589844 404.839844 C 780.589844 410.992188 780.441406 417.136719 780.136719 423.277344 C 779.835938 429.421875 779.382812 435.550781 778.78125 441.671875 C 778.179688 447.789062 777.425781 453.890625 776.523438 459.976562 C 775.621094 466.058594 774.570312 472.113281 773.371094 478.144531 C 772.171875 484.175781 770.824219 490.175781 769.332031 496.140625 C 767.835938 502.105469 766.195312 508.03125 764.410156 513.914062 C 762.625 519.800781 760.699219 525.636719 758.625 531.425781 C 756.554688 537.21875 754.34375 542.953125 751.988281 548.632812 C 749.636719 554.316406 747.144531 559.9375 744.515625 565.496094 C 741.886719 571.054688 739.121094 576.546875 736.222656 581.96875 C 733.324219 587.390625 730.292969 592.742188 727.132812 598.015625 C 723.972656 603.289062 720.683594 608.484375 717.265625 613.597656 C 713.847656 618.710938 710.308594 623.734375 706.644531 628.675781 C 702.984375 633.613281 699.199219 638.460938 695.300781 643.214844 C 691.398438 647.96875 687.382812 652.621094 683.253906 657.179688 C 679.125 661.734375 674.886719 666.1875 670.535156 670.535156 C 666.1875 674.886719 661.734375 679.125 657.179688 683.253906 C 652.625 687.382812 647.96875 691.398438 643.214844 695.300781 C 638.460938 699.199219 633.613281 702.984375 628.675781 706.644531 C 623.734375 710.308594 618.710938 713.847656 613.597656 717.265625 C 608.484375 720.683594 603.289062 723.972656 598.015625 727.132812 C 592.742188 730.292969 587.390625 733.324219 581.96875 736.222656 C 576.546875 739.121094 571.054688 741.886719 565.496094 744.515625 C 559.9375 747.144531 554.316406 749.636719 548.632812 751.988281 C 542.953125 754.34375 537.21875 756.554688 531.425781 758.625 C 525.636719 760.699219 519.800781 762.625 513.914062 764.410156 C 508.03125 766.195312 502.105469 767.835938 496.140625 769.332031 C 490.175781 770.824219 484.175781 772.171875 478.144531 773.371094 C 472.113281 774.570312 466.058594 775.621094 459.976562 776.523438 C 453.890625 777.425781 447.789062 778.179688 441.671875 778.78125 C 435.550781 779.382812 429.421875 779.835938 423.277344 780.136719 C 417.136719 780.441406 410.992188 780.589844 404.839844 780.589844 C 398.691406 780.589844 392.546875 780.441406 386.402344 780.136719 C 380.261719 779.835938 374.132812 779.382812 368.011719 778.78125 C 361.890625 778.179688 355.789062 777.425781 349.707031 776.523438 C 343.625 775.621094 337.566406 774.570312 331.535156 773.371094 C 325.503906 772.171875 319.507812 770.824219 313.542969 769.332031 C 307.578125 767.835938 301.652344 766.195312 295.765625 764.410156 C 289.882812 762.625 284.042969 760.699219 278.253906 758.625 C 272.464844 756.554688 266.730469 754.34375 261.046875 751.988281 C 255.367188 749.636719 249.746094 747.144531 244.1875 744.515625 C 238.628906 741.886719 233.136719 739.121094 227.714844 736.222656 C 222.289062 733.324219 216.941406 730.292969 211.667969 727.132812 C 206.394531 723.972656 201.199219 720.683594 196.085938 717.265625 C 190.972656 713.847656 185.945312 710.308594 181.007812 706.648438 C 176.066406 702.984375 171.222656 699.199219 166.46875 695.300781 C 161.714844 691.398438 157.058594 687.382812 152.503906 683.253906 C 147.945312 679.125 143.496094 674.886719 139.144531 670.535156 C 134.796875 666.1875 130.558594 661.734375 126.429688 657.179688 C 122.300781 652.621094 118.285156 647.96875 114.382812 643.214844 C 110.480469 638.460938 106.699219 633.613281 103.035156 628.675781 C 99.371094 623.734375 95.832031 618.710938 92.417969 613.597656 C 89 608.484375 85.710938 603.289062 82.550781 598.015625 C 79.386719 592.742188 76.359375 587.390625 73.460938 581.96875 C 70.558594 576.546875 67.796875 571.054688 65.167969 565.496094 C 62.539062 559.9375 60.046875 554.316406 57.695312 548.632812 C 55.339844 542.953125 53.128906 537.21875 51.054688 531.425781 C 48.984375 525.636719 47.054688 519.800781 45.269531 513.914062 C 43.484375 508.03125 41.847656 502.105469 40.351562 496.140625 C 38.859375 490.175781 37.511719 484.175781 36.3125 478.144531 C 35.113281 472.113281 34.058594 466.058594 33.15625 459.976562 C 32.253906 453.890625 31.503906 447.789062 30.902344 441.671875 C 30.296875 435.550781 29.84375 429.421875 29.542969 423.277344 C 29.242188 417.136719 29.089844 410.992188 29.089844 404.839844 C 29.089844 398.691406 29.242188 392.546875 29.542969 386.402344 C 29.84375 380.261719 30.296875 374.132812 30.902344 368.011719 C 31.503906 361.890625 32.253906 355.789062 33.15625 349.707031 C 34.058594 343.625 35.113281 337.566406 36.3125 331.535156 C 37.511719 325.503906 38.859375 319.507812 40.351562 313.542969 C 41.847656 307.578125 43.484375 301.652344 45.269531 295.765625 C 47.054688 289.882812 48.984375 284.042969 51.054688 278.253906 C 53.128906 272.464844 55.339844 266.730469 57.695312 261.046875 C 60.046875 255.367188 62.539062 249.746094 65.167969 244.1875 C 67.796875 238.628906 70.558594 233.136719 73.460938 227.714844 C 76.359375 222.289062 79.386719 216.941406 82.550781 211.667969 C 85.710938 206.390625 89 201.199219 92.417969 196.085938 C 95.832031 190.972656 99.371094 185.945312 103.035156 181.007812 C 106.699219 176.066406 110.480469 171.222656 114.382812 166.46875 C 118.285156 161.714844 122.300781 157.058594 126.429688 152.503906 C 130.558594 147.945312 134.796875 143.496094 139.144531 139.144531 C 143.496094 134.796875 147.945312 130.558594 152.503906 126.429688 C 157.058594 122.300781 161.714844 118.285156 166.46875 114.382812 C 171.222656 110.480469 176.066406 106.699219 181.007812 103.035156 C 185.945312 99.371094 190.972656 95.832031 196.085938 92.417969 C 201.199219 89 206.390625 85.710938 211.667969 82.550781 C 216.941406 79.386719 222.289062 76.359375 227.714844 73.460938 C 233.136719 70.558594 238.628906 67.796875 244.1875 65.167969 C 249.746094 62.539062 255.367188 60.046875 261.046875 57.695312 C 266.730469 55.339844 272.464844 53.128906 278.253906 51.054688 C 284.042969 48.984375 289.882812 47.054688 295.765625 45.269531 C 301.652344 43.484375 307.578125 41.847656 313.542969 40.351562 C 319.507812 38.859375 325.503906 37.511719 331.535156 36.3125 C 337.566406 35.113281 343.625 34.058594 349.707031 33.15625 C 355.789062 32.257812 361.890625 31.503906 368.011719 30.902344 C 374.132812 30.296875 380.261719 29.84375 386.402344 29.542969 C 392.546875 29.242188 398.691406 29.089844 404.839844 29.089844 C 410.992188 29.089844 417.136719 29.242188 423.277344 29.542969 C 429.421875 29.84375 435.550781 30.296875 441.671875 30.902344 C 447.789062 31.503906 453.890625 32.257812 459.976562 33.15625 C 466.058594 34.058594 472.113281 35.113281 478.144531 36.3125 C 484.175781 37.511719 490.175781 38.859375 496.140625 40.351562 C 502.105469 41.847656 508.03125 43.484375 513.914062 45.269531 C 519.800781 47.054688 525.636719 48.984375 531.425781 51.054688 C 537.21875 53.128906 542.953125 55.339844 548.632812 57.695312 C 554.316406 60.046875 559.9375 62.539062 565.496094 65.167969 C 571.054688 67.796875 576.546875 70.558594 581.96875 73.460938 C 587.390625 76.359375 592.742188 79.386719 598.015625 82.550781 C 603.289062 85.710938 608.484375 89 613.597656 92.417969 C 618.710938 95.832031 623.734375 99.371094 628.675781 103.035156 C 633.613281 106.699219 638.460938 110.480469 643.214844 114.382812 C 647.96875 118.285156 652.625 122.300781 657.179688 126.429688 C 661.734375 130.558594 666.1875 134.796875 670.535156 139.144531 C 674.886719 143.496094 679.125 147.945312 683.253906 152.503906 C 687.382812 157.058594 691.398438 161.714844 695.300781 166.46875 C 699.199219 171.222656 702.984375 176.066406 706.644531 181.007812 C 710.308594 185.945312 713.847656 190.972656 717.265625 196.085938 C 720.683594 201.199219 723.972656 206.390625 727.132812 211.667969 C 730.292969 216.941406 733.324219 222.289062 736.222656 227.714844 C 739.121094 233.136719 741.886719 238.628906 744.515625 244.1875 C 747.144531 249.746094 749.636719 255.367188 751.988281 261.046875 C 754.34375 266.730469 756.554688 272.464844 758.625 278.253906 C 760.699219 284.042969 762.625 289.882812 764.410156 295.765625 C 766.195312 301.652344 767.835938 307.578125 769.332031 313.542969 C 770.824219 319.507812 772.171875 325.503906 773.371094 331.535156 C 774.570312 337.566406 775.621094 343.625 776.523438 349.707031 C 777.425781 355.789062 778.179688 361.890625 778.78125 368.011719 C 779.382812 374.132812 779.835938 380.261719 780.136719 386.402344 C 780.441406 392.546875 780.589844 398.691406 780.589844 404.839844 Z M 780.589844 404.839844 " fill-opacity="1" fill-rule="nonzero"/></g><path fill="#ebac33" d="M 728.085938 404.839844 C 728.085938 410.132812 727.957031 415.417969 727.695312 420.703125 C 727.4375 425.984375 727.046875 431.261719 726.527344 436.523438 C 726.011719 441.789062 725.363281 447.039062 724.585938 452.269531 C 723.8125 457.503906 722.90625 462.714844 721.875 467.902344 C 720.84375 473.089844 719.683594 478.25 718.398438 483.382812 C 717.113281 488.515625 715.703125 493.613281 714.167969 498.675781 C 712.632812 503.738281 710.972656 508.757812 709.191406 513.738281 C 707.40625 518.71875 705.503906 523.652344 703.480469 528.542969 C 701.457031 533.429688 699.3125 538.265625 697.050781 543.046875 C 694.789062 547.828125 692.410156 552.550781 689.917969 557.21875 C 687.421875 561.882812 684.816406 566.484375 682.097656 571.023438 C 679.378906 575.558594 676.546875 580.027344 673.609375 584.425781 C 670.671875 588.824219 667.625 593.148438 664.472656 597.398438 C 661.324219 601.648438 658.070312 605.816406 654.710938 609.90625 C 651.355469 613.996094 647.902344 618 644.351562 621.917969 C 640.796875 625.839844 637.148438 629.667969 633.410156 633.410156 C 629.667969 637.148438 625.839844 640.796875 621.917969 644.351562 C 618 647.902344 613.996094 651.355469 609.90625 654.710938 C 605.816406 658.070312 601.648438 661.324219 597.398438 664.472656 C 593.148438 667.625 588.824219 670.671875 584.425781 673.609375 C 580.027344 676.546875 575.558594 679.378906 571.023438 682.097656 C 566.484375 684.816406 561.882812 687.421875 557.21875 689.917969 C 552.550781 692.410156 547.828125 694.789062 543.046875 697.050781 C 538.265625 699.3125 533.429688 701.457031 528.542969 703.480469 C 523.652344 705.503906 518.71875 707.40625 513.738281 709.191406 C 508.757812 710.972656 503.738281 712.632812 498.675781 714.167969 C 493.613281 715.703125 488.515625 717.113281 483.382812 718.398438 C 478.25 719.683594 473.089844 720.84375 467.902344 721.875 C 462.714844 722.90625 457.503906 723.8125 452.269531 724.585938 C 447.039062 725.363281 441.789062 726.011719 436.523438 726.527344 C 431.261719 727.046875 425.984375 727.4375 420.703125 727.695312 C 415.417969 727.957031 410.132812 728.085938 404.839844 728.085938 C 399.550781 728.085938 394.265625 727.957031 388.980469 727.695312 C 383.695312 727.4375 378.421875 727.046875 373.15625 726.53125 C 367.894531 726.011719 362.644531 725.363281 357.410156 724.585938 C 352.179688 723.8125 346.96875 722.90625 341.78125 721.875 C 336.589844 720.84375 331.429688 719.683594 326.300781 718.398438 C 321.167969 717.113281 316.070312 715.703125 311.007812 714.167969 C 305.945312 712.632812 300.925781 710.972656 295.945312 709.191406 C 290.960938 707.40625 286.027344 705.503906 281.140625 703.480469 C 276.253906 701.457031 271.417969 699.3125 266.636719 697.050781 C 261.855469 694.789062 257.128906 692.410156 252.464844 689.917969 C 247.800781 687.421875 243.199219 684.816406 238.660156 682.097656 C 234.121094 679.378906 229.65625 676.546875 225.257812 673.609375 C 220.859375 670.671875 216.535156 667.625 212.285156 664.472656 C 208.035156 661.324219 203.867188 658.070312 199.777344 654.710938 C 195.6875 651.355469 191.683594 647.902344 187.761719 644.351562 C 183.84375 640.796875 180.011719 637.148438 176.273438 633.410156 C 172.53125 629.667969 168.886719 625.839844 165.332031 621.917969 C 161.78125 618 158.324219 613.996094 154.96875 609.90625 C 151.613281 605.816406 148.359375 601.648438 145.207031 597.398438 C 142.058594 593.148438 139.011719 588.824219 136.074219 584.425781 C 133.132812 580.027344 130.304688 575.558594 127.585938 571.023438 C 124.867188 566.484375 122.257812 561.882812 119.765625 557.21875 C 117.269531 552.550781 114.894531 547.828125 112.632812 543.046875 C 110.371094 538.265625 108.226562 533.429688 106.203125 528.542969 C 104.175781 523.652344 102.273438 518.71875 100.492188 513.738281 C 98.710938 508.757812 97.050781 503.738281 95.515625 498.675781 C 93.980469 493.613281 92.570312 488.515625 91.285156 483.382812 C 90 478.25 88.839844 473.089844 87.808594 467.902344 C 86.777344 462.714844 85.871094 457.503906 85.09375 452.269531 C 84.320312 447.039062 83.671875 441.789062 83.152344 436.523438 C 82.632812 431.261719 82.246094 425.984375 81.984375 420.703125 C 81.726562 415.417969 81.597656 410.132812 81.597656 404.839844 C 81.597656 399.550781 81.726562 394.265625 81.984375 388.980469 C 82.246094 383.695312 82.632812 378.421875 83.152344 373.15625 C 83.671875 367.894531 84.320312 362.644531 85.09375 357.410156 C 85.871094 352.179688 86.777344 346.96875 87.808594 341.78125 C 88.839844 336.589844 90 331.429688 91.285156 326.300781 C 92.570312 321.167969 93.980469 316.070312 95.515625 311.007812 C 97.050781 305.945312 98.710938 300.925781 100.492188 295.945312 C 102.273438 290.960938 104.175781 286.027344 106.203125 281.140625 C 108.226562 276.253906 110.371094 271.417969 112.632812 266.636719 C 114.894531 261.855469 117.269531 257.128906 119.765625 252.464844 C 122.257812 247.800781 124.867188 243.199219 127.585938 238.660156 C 130.304688 234.121094 133.132812 229.65625 136.074219 225.257812 C 139.011719 220.859375 142.058594 216.535156 145.207031 212.285156 C 148.359375 208.035156 151.613281 203.867188 154.96875 199.777344 C 158.324219 195.6875 161.78125 191.683594 165.332031 187.761719 C 168.886719 183.84375 172.53125 180.011719 176.273438 176.273438 C 180.011719 172.53125 183.84375 168.886719 187.761719 165.332031 C 191.683594 161.78125 195.6875 158.324219 199.777344 154.96875 C 203.867188 151.613281 208.035156 148.359375 212.285156 145.207031 C 216.535156 142.058594 220.859375 139.011719 225.257812 136.074219 C 229.65625 133.132812 234.121094 130.304688 238.660156 127.585938 C 243.199219 124.867188 247.800781 122.257812 252.464844 119.765625 C 257.128906 117.269531 261.855469 114.894531 266.636719 112.632812 C 271.417969 110.371094 276.253906 108.226562 281.140625 106.203125 C 286.027344 104.179688 290.960938 102.273438 295.945312 100.492188 C 300.925781 98.710938 305.945312 97.050781 311.007812 95.515625 C 316.070312 93.980469 321.167969 92.570312 326.300781 91.285156 C 331.429688 90 336.589844 88.839844 341.78125 87.808594 C 346.96875 86.777344 352.179688 85.871094 357.410156 85.09375 C 362.644531 84.320312 367.894531 83.671875 373.15625 83.152344 C 378.421875 82.632812 383.695312 82.246094 388.980469 81.984375 C 394.265625 81.726562 399.550781 81.597656 404.839844 81.597656 C 410.132812 81.597656 415.417969 81.726562 420.703125 81.984375 C 425.984375 82.246094 431.261719 82.632812 436.523438 83.152344 C 441.789062 83.671875 447.039062 84.320312 452.269531 85.09375 C 457.503906 85.871094 462.714844 86.777344 467.902344 87.808594 C 473.089844 88.839844 478.25 90 483.382812 91.285156 C 488.515625 92.570312 493.613281 93.980469 498.675781 95.515625 C 503.738281 97.050781 508.757812 98.710938 513.738281 100.492188 C 518.71875 102.273438 523.652344 104.179688 528.542969 106.203125 C 533.429688 108.226562 538.265625 110.371094 543.046875 112.632812 C 547.828125 114.894531 552.550781 117.269531 557.21875 119.765625 C 561.882812 122.257812 566.484375 124.867188 571.023438 127.585938 C 575.558594 130.304688 580.027344 133.132812 584.425781 136.074219 C 588.824219 139.011719 593.148438 142.058594 597.398438 145.207031 C 601.648438 148.359375 605.816406 151.613281 609.90625 154.96875 C 613.996094 158.324219 618 161.78125 621.917969 165.332031 C 625.839844 168.886719 629.667969 172.53125 633.410156 176.273438 C 637.148438 180.011719 640.796875 183.84375 644.351562 187.761719 C 647.902344 191.683594 651.355469 195.6875 654.710938 199.777344 C 658.070312 203.867188 661.324219 208.035156 664.472656 212.285156 C 667.625 216.535156 670.671875 220.859375 673.609375 225.257812 C 676.546875 229.65625 679.378906 234.121094 682.097656 238.660156 C 684.816406 243.199219 687.421875 247.800781 689.917969 252.464844 C 692.410156 257.128906 694.789062 261.855469 697.050781 266.636719 C 699.3125 271.417969 701.457031 276.253906 703.480469 281.140625 C 705.503906 286.027344 707.40625 290.960938 709.191406 295.945312 C 710.972656 300.925781 712.632812 305.945312 714.167969 311.007812 C 715.703125 316.070312 717.113281 321.167969 718.398438 326.300781 C 719.683594 331.429688 720.84375 336.589844 721.875 341.78125 C 722.90625 346.96875 723.8125 352.179688 724.585938 357.410156 C 725.363281 362.644531 726.011719 367.894531 726.527344 373.15625 C 727.046875 378.421875 727.4375 383.695312 727.695312 388.980469 C 727.957031 394.265625 728.085938 399.550781 728.085938 404.839844 Z M 728.085938 404.839844 " fill-opacity="1" fill-rule="nonzero"/><path fill="#e18e29" d="M 710.324219 516.429688 C 705.382812 511.882812 700.238281 507.574219 694.894531 503.503906 C 689.550781 499.4375 684.027344 495.625 678.328125 492.074219 C 672.628906 488.519531 666.777344 485.238281 660.773438 482.230469 C 654.765625 479.222656 648.632812 476.5 642.375 474.0625 C 636.117188 471.625 629.757812 469.484375 623.296875 467.640625 C 616.839844 465.796875 610.308594 464.257812 603.707031 463.023438 C 597.105469 461.789062 590.460938 460.863281 583.769531 460.246094 C 577.082031 459.632812 570.378906 459.328125 563.664062 459.339844 C 443.863281 459.339844 346.742188 556.460938 346.742188 676.261719 C 346.730469 694.339844 348.9375 712.140625 353.367188 729.667969 C 370.417969 732.394531 387.574219 733.757812 404.839844 733.753906 C 546.265625 733.753906 666.46875 642.929688 710.324219 516.429688 Z M 710.324219 516.429688 " fill-opacity="1" fill-rule="nonzero"/><path fill="#be1e2d" d="M 356.902344 383.636719 L 369.398438 408.960938 L 397.34375 413.023438 L 377.121094 432.730469 L 381.898438 460.566406 L 356.902344 447.425781 L 331.902344 460.566406 L 336.679688 432.730469 L 316.457031 413.023438 L 344.402344 408.960938 Z M 356.902344 383.636719 " fill-opacity="1" fill-rule="nonzero"/><path fill="#be1e2d" d="M 460.089844 383.636719 L 472.589844 408.960938 L 500.535156 413.023438 L 480.316406 432.730469 L 485.085938 460.566406 L 460.089844 447.425781 L 435.09375 460.566406 L 439.867188 432.730469 L 419.644531 413.023438 L 447.589844 408.960938 Z M 460.089844 383.636719 " fill-opacity="1" fill-rule="nonzero"/><path fill="#be1e2d" d="M 408.121094 317.535156 L 420.617188 342.859375 L 448.566406 346.921875 L 428.34375 366.628906 L 433.117188 394.464844 L 408.121094 381.324219 L 383.125 394.464844 L 387.898438 366.628906 L 367.671875 346.921875 L 395.625 342.859375 Z M 408.121094 317.535156 " fill-opacity="1" fill-rule="nonzero"/><path fill="#ffffff" d="M 362.894531 109.613281 C 361.832031 109.367188 360.066406 108.8125 358.988281 109.179688 L 358.863281 109.179688 C 352.828125 104.65625 343.257812 107.097656 336.335938 108.789062 C 330.03125 110.328125 323.800781 112.695312 317.71875 114.925781 C 305.929688 119.238281 294.097656 123.488281 282.371094 127.972656 C 270.09375 132.664062 257.800781 137.691406 246.375 144.21875 C 236.058594 150.140625 226.492188 157.089844 217.671875 165.070312 C 201.136719 179.96875 187.304688 197.796875 174.769531 216.113281 C 171.753906 220.511719 169.949219 225.835938 167.871094 230.734375 C 165.476562 236.371094 162.496094 242.203125 160.976562 248.160156 C 160.371094 250.515625 159.71875 252.863281 159.1875 255.234375 C 158.398438 258.789062 158.753906 262.320312 159.242188 265.890625 C 159.636719 268.8125 160.855469 272.042969 163.773438 273.273438 C 166.90625 274.59375 170.238281 273.296875 173.136719 272.019531 C 176.386719 270.664062 179.308594 268.796875 181.90625 266.417969 C 184.03125 264.460938 186.339844 262.597656 188.261719 260.441406 C 192.171875 256.074219 195.902344 251.546875 199.816406 247.179688 C 208.242188 237.78125 214.800781 226.992188 222.367188 216.902344 C 232.84375 203.664062 244.585938 191.542969 257.777344 180.980469 C 272.832031 169.773438 289.765625 161.855469 306.84375 154.214844 C 316.636719 149.832031 326.609375 145.71875 336.257812 141.03125 C 341.074219 138.683594 345.925781 136.339844 350.4375 133.445312 C 355.84375 130 361.996094 125.902344 363.011719 119.570312 C 363.070312 119.511719 363.132812 119.4375 363.210938 119.34375 C 364.222656 118.910156 365.085938 117.238281 365.652344 116.355469 C 367.195312 113.917969 365.707031 110.269531 362.894531 109.613281 Z M 362.894531 109.613281 " fill-opacity="1" fill-rule="nonzero"/><path fill="#ffffff" d="M 138.621094 342.984375 C 138.785156 342.648438 138.90625 342.292969 138.980469 341.925781 L 138.980469 341.949219 C 138.894531 342.234375 138.769531 342.59375 138.621094 342.984375 Z M 138.621094 342.984375 " fill-opacity="1" fill-rule="nonzero"/><path fill="#ffffff" d="M 151.050781 313.316406 C 151.671875 307.386719 145.777344 303.429688 140.496094 303.585938 C 138.769531 303.351562 137.007812 303.269531 135.25 303.839844 C 132.957031 304.597656 130.945312 305.820312 129.214844 307.5 C 128.03125 308.59375 126.890625 309.761719 125.8125 310.949219 C 122.984375 314.066406 120.640625 317.800781 118.484375 321.421875 C 113.453125 329.957031 105.800781 343.066406 114.878906 351.5 C 122.070312 358.175781 132.554688 354.949219 136.898438 346.859375 C 137.046875 346.585938 138.035156 344.519531 138.625 342.980469 C 138.515625 343.171875 138.546875 342.894531 138.976562 341.945312 C 139 341.863281 139.019531 341.789062 139.035156 341.71875 C 139.035156 341.789062 139.003906 341.855469 138.984375 341.921875 C 139.660156 340.4375 140.378906 338.972656 141.140625 337.523438 C 142.738281 334.480469 144.5625 331.609375 146.40625 328.707031 C 147.265625 327.34375 148.011719 325.898438 148.835938 324.496094 C 149.738281 322.964844 150.730469 321.550781 151.136719 319.753906 C 151.292969 318.609375 151.449219 317.464844 151.597656 316.304688 C 151.503906 312.726562 151.320312 311.730469 151.050781 313.316406 Z M 151.050781 313.316406 " fill-opacity="1" fill-rule="nonzero"/></svg>