<svg xmlns="http://www.w3.org/2000/svg" xmlns:xlink="http://www.w3.org/1999/xlink" width="150" zoomAndPan="magnify" viewBox="0 0 112.5 112.499997" height="150" preserveAspectRatio="xMidYMid meet" version="1.0"><defs><clipPath id="0b0edd10ef"><path d="M 7.210938 1 L 105 1 L 105 112 L 7.210938 112 Z M 7.210938 1 " clip-rule="nonzero"/></clipPath></defs><g clip-path="url(#0b0edd10ef)"><path fill="#ffcc8c" d="M 37.226562 111.75 L 37.226562 92.972656 L 26.011719 92.972656 C 22.898438 92.972656 20.398438 90.460938 20.398438 87.371094 L 20.398438 64.964844 L 7.300781 64.964844 L 20.398438 42.574219 L 20.414062 42.574219 C 20.921875 18.867188 41.15625 -0.0195312 65.410156 1.609375 C 86.222656 3.019531 103.125 19.914062 104.480469 40.695312 C 105.132812 50.542969 102.363281 59.722656 97.253906 67.167969 C 92.996094 73.386719 89.429688 80.054688 87.402344 87.316406 C 84.539062 97.617188 83.996094 106.886719 83.941406 111.75 Z M 37.226562 111.75 " fill-opacity="1" fill-rule="nonzero"/></g><path fill="#44a649" d="M 95.789062 41.273438 C 95.789062 27.304688 82.816406 15.972656 66.804688 15.972656 L 66.804688 41.273438 L 37.824219 41.273438 C 37.824219 55.242188 50.792969 66.574219 66.804688 66.574219 C 66.878906 66.574219 66.949219 66.574219 67.023438 66.574219 L 79.484375 75.625 L 76.023438 65.269531 C 87.507812 61.910156 95.789062 52.460938 95.789062 41.292969 Z M 95.789062 41.273438 " fill-opacity="1" fill-rule="nonzero"/><path fill="#e65157" d="M 61.371094 10.554688 L 61.371094 35.851562 L 32.386719 35.851562 C 32.386719 21.882812 45.359375 10.554688 61.371094 10.554688 Z M 61.371094 10.554688 " fill-opacity="1" fill-rule="nonzero"/><path fill="#e6b373" d="M 37.226562 91.167969 L 46.570312 91.167969 L 46.570312 94.78125 L 37.226562 94.78125 Z M 37.226562 91.167969 " fill-opacity="1" fill-rule="nonzero"/><path fill="#f2f2f2" d="M 70.429688 55.730469 C 69.957031 55.730469 69.503906 55.550781 69.140625 55.207031 L 64.015625 50.09375 L 66.570312 47.542969 L 70.410156 51.375 L 81.929688 39.882812 L 84.484375 42.429688 L 71.675781 55.207031 C 71.316406 55.566406 70.863281 55.730469 70.390625 55.730469 Z M 70.429688 55.730469 " fill-opacity="1" fill-rule="nonzero"/><path fill="#f2f2f2" d="M 56.914062 21.179688 L 54.34375 18.613281 L 50.503906 22.460938 L 46.664062 18.613281 L 44.089844 21.179688 L 47.949219 25.011719 L 44.089844 28.839844 L 46.664062 31.40625 L 50.503906 27.558594 L 54.34375 31.40625 L 56.914062 28.839844 L 53.054688 25.011719 Z M 56.914062 21.179688 " fill-opacity="1" fill-rule="nonzero"/></svg>